<svg aria-hidden="true" style="position: absolute; width: 0; height: 0; overflow: hidden;" version="1.1" xmlns="http://www.w3.org/2000/svg" xmlns:xlink="http://www.w3.org/1999/xlink">
<defs>
<symbol id="icon-cup" viewBox="0 0 33 32">
<path d="M1.5 12c-0.15 0-0.297 0.034-0.432 0.098s-0.254 0.159-0.347 0.276c-0.094 0.117-0.16 0.253-0.194 0.399s-0.035 0.297-0.003 0.443l3.304 14.868c0.247 1.11 0.865 2.104 1.752 2.816s1.991 1.1 3.128 1.1h11.584c1.138-0 2.241-0.388 3.128-1.1s1.505-1.705 1.752-2.816l0.262-1.18c1.53 0.286 3.111-0.033 4.41-0.891s2.213-2.186 2.551-3.706c0.337-1.519 0.071-3.11-0.742-4.437s-2.111-2.285-3.618-2.674l0.442-1.98c0.032-0.146 0.031-0.298-0.003-0.443s-0.1-0.282-0.194-0.399c-0.094-0.117-0.212-0.211-0.347-0.276s-0.283-0.098-0.432-0.098h-26zM26.5 25c-0.212 0-0.423-0.017-0.632-0.050l1.734-7.796c0.925 0.268 1.722 0.86 2.246 1.669s0.738 1.778 0.604 2.732c-0.134 0.954-0.607 1.827-1.333 2.46s-1.656 0.983-2.619 0.985zM5.78 27.65l-3.034-13.65h23.508l-3.034 13.65c-0.148 0.666-0.519 1.262-1.051 1.69s-1.194 0.66-1.877 0.66h-11.584c-0.683-0-1.345-0.233-1.877-0.66s-0.903-1.023-1.051-1.69z"></path>
<path d="M9.3 1.6l-0.006 0.008-0.028 0.038c-0.146 0.2-0.282 0.407-0.408 0.62-0.107 0.171-0.202 0.349-0.282 0.534-0.052 0.12-0.068 0.184-0.074 0.206v0.008c0.023 0.177 0.085 0.346 0.182 0.496 0.15 0.266 0.356 0.544 0.616 0.89l0.020 0.024c0.236 0.316 0.52 0.694 0.74 1.086 0.224 0.4 0.44 0.91 0.44 1.49 0 0.376-0.13 0.736-0.238 0.988-0.116 0.268-0.251 0.527-0.404 0.776-0.157 0.262-0.326 0.517-0.506 0.764l-0.036 0.050-0.010 0.016-0.004 0.004c-0.159 0.212-0.396 0.353-0.658 0.391s-0.529-0.030-0.742-0.189-0.353-0.396-0.391-0.658c-0.038-0.263 0.030-0.529 0.189-0.742l0.006-0.008 0.028-0.038c0.146-0.2 0.282-0.407 0.408-0.62 0.107-0.171 0.202-0.349 0.282-0.534 0.052-0.12 0.068-0.184 0.074-0.206-0.021-0.179-0.083-0.352-0.18-0.504-0.186-0.31-0.392-0.608-0.618-0.89l-0.020-0.024c-0.27-0.345-0.517-0.708-0.74-1.086-0.272-0.451-0.424-0.964-0.44-1.49 0-0.376 0.13-0.736 0.238-0.988 0.118-0.276 0.268-0.548 0.404-0.776 0.159-0.261 0.328-0.516 0.506-0.764l0.050-0.070c0.159-0.212 0.396-0.353 0.658-0.391s0.529 0.030 0.742 0.189c0.212 0.159 0.353 0.396 0.391 0.658s-0.030 0.529-0.189 0.742zM15.3 1.6l-0.006 0.008-0.028 0.038c-0.146 0.2-0.282 0.407-0.408 0.62-0.107 0.171-0.202 0.349-0.282 0.534-0.052 0.12-0.068 0.184-0.074 0.206v0.008c0.023 0.177 0.085 0.346 0.182 0.496 0.15 0.266 0.356 0.544 0.616 0.89l0.020 0.024c0.236 0.316 0.52 0.694 0.74 1.086 0.224 0.4 0.44 0.91 0.44 1.49 0 0.376-0.13 0.736-0.238 0.988-0.116 0.268-0.251 0.527-0.404 0.776-0.157 0.262-0.326 0.517-0.506 0.764l-0.036 0.050-0.010 0.016-0.004 0.004c-0.159 0.212-0.396 0.353-0.658 0.391s-0.529-0.030-0.742-0.189-0.353-0.396-0.391-0.658c-0.038-0.263 0.030-0.529 0.189-0.742l0.006-0.008 0.028-0.038c0.146-0.2 0.282-0.407 0.408-0.62 0.107-0.171 0.202-0.349 0.282-0.534 0.052-0.12 0.068-0.184 0.074-0.206-0.021-0.179-0.083-0.352-0.18-0.504-0.186-0.31-0.392-0.608-0.618-0.89l-0.020-0.024c-0.27-0.345-0.517-0.708-0.74-1.086-0.272-0.451-0.424-0.964-0.44-1.49 0-0.376 0.13-0.736 0.238-0.988 0.118-0.276 0.268-0.548 0.404-0.776 0.159-0.261 0.328-0.516 0.506-0.764l0.050-0.070c0.159-0.212 0.396-0.353 0.658-0.391s0.529 0.030 0.742 0.189 0.353 0.396 0.391 0.658c0.038 0.263-0.030 0.529-0.189 0.742zM21.3 1.6l-0.006 0.008-0.028 0.038c-0.145 0.2-0.282 0.407-0.408 0.62-0.107 0.171-0.202 0.349-0.282 0.534-0.052 0.12-0.068 0.184-0.074 0.206v0.008c0.023 0.177 0.085 0.346 0.182 0.496 0.15 0.266 0.356 0.544 0.616 0.89l0.020 0.024c0.236 0.316 0.52 0.694 0.74 1.086 0.224 0.4 0.44 0.91 0.44 1.49 0 0.376-0.13 0.736-0.238 0.988-0.116 0.268-0.251 0.527-0.404 0.776-0.156 0.262-0.324 0.517-0.504 0.764l-0.038 0.050-0.010 0.016-0.004 0.004c-0.159 0.212-0.396 0.353-0.658 0.391s-0.529-0.030-0.742-0.189-0.353-0.396-0.391-0.658c-0.038-0.263 0.030-0.529 0.189-0.742l0.006-0.008 0.028-0.038c0.145-0.2 0.282-0.407 0.408-0.62 0.107-0.171 0.202-0.349 0.282-0.534 0.052-0.12 0.068-0.184 0.074-0.206-0.021-0.179-0.083-0.352-0.18-0.504-0.186-0.31-0.392-0.608-0.618-0.89l-0.020-0.024c-0.27-0.345-0.517-0.708-0.74-1.086-0.272-0.451-0.424-0.964-0.44-1.49 0-0.376 0.13-0.736 0.238-0.988 0.118-0.276 0.268-0.548 0.404-0.776 0.159-0.261 0.328-0.516 0.506-0.764l0.050-0.070c0.159-0.212 0.396-0.353 0.658-0.391s0.529 0.030 0.742 0.189 0.353 0.396 0.391 0.658c0.038 0.263-0.030 0.529-0.189 0.742z"></path>
</symbol>
<symbol id="icon-petrol" viewBox="0 0 32 32">
<path d="M6 5c0-0.265 0.105-0.52 0.293-0.707s0.442-0.293 0.707-0.293h10c0.265 0 0.52 0.105 0.707 0.293s0.293 0.442 0.293 0.707v10c0 0.265-0.105 0.52-0.293 0.707s-0.442 0.293-0.707 0.293h-10c-0.265 0-0.52-0.105-0.707-0.293s-0.293-0.442-0.293-0.707v-10z"></path>
<path d="M2 4c0-1.061 0.421-2.078 1.172-2.828s1.768-1.172 2.828-1.172h12c1.061 0 2.078 0.421 2.828 1.172s1.172 1.768 1.172 2.828v16c1.061 0 2.078 0.421 2.828 1.172s1.172 1.768 1.172 2.828v1c0 0.265 0.105 0.52 0.293 0.707s0.442 0.293 0.707 0.293 0.52-0.105 0.707-0.293c0.188-0.188 0.293-0.442 0.293-0.707v-9h-1c-0.265 0-0.52-0.105-0.707-0.293s-0.293-0.442-0.293-0.707v-6.25c0-0.265 0.105-0.52 0.293-0.707s0.442-0.293 0.707-0.293h2.99c-0.022-0.952-0.106-1.788-0.402-2.444-0.158-0.381-0.435-0.702-0.788-0.916-0.368-0.22-0.928-0.39-1.8-0.39-0.265 0-0.52-0.105-0.707-0.293s-0.293-0.442-0.293-0.707 0.105-0.52 0.293-0.707c0.188-0.188 0.442-0.293 0.707-0.293 1.128-0.003 2.069 0.221 2.824 0.672 0.766 0.456 1.268 1.102 1.588 1.814 0.59 1.31 0.588 2.93 0.588 4.162v6.35c0 0.132-0.025 0.262-0.076 0.383s-0.124 0.232-0.217 0.325c-0.093 0.093-0.203 0.167-0.325 0.217s-0.252 0.076-0.383 0.076h-1v9c0 0.796-0.316 1.559-0.879 2.121s-1.326 0.879-2.121 0.879-1.559-0.316-2.121-0.879c-0.563-0.563-0.879-1.326-0.879-2.121v-1c0-0.53-0.211-1.039-0.586-1.414s-0.884-0.586-1.414-0.586v8h1c0.265 0 0.52 0.105 0.707 0.293s0.293 0.442 0.293 0.707-0.105 0.52-0.293 0.707c-0.188 0.188-0.442 0.293-0.707 0.293h-22c-0.265 0-0.52-0.105-0.707-0.293s-0.293-0.442-0.293-0.707 0.105-0.52 0.293-0.707c0.188-0.188 0.442-0.293 0.707-0.293h1v-26zM20 4c0-0.53-0.211-1.039-0.586-1.414s-0.884-0.586-1.414-0.586h-12c-0.53 0-1.039 0.211-1.414 0.586s-0.586 0.884-0.586 1.414v26h16v-26z"></path>
</symbol>
<symbol id="icon-gas" viewBox="0 0 32 32">
  <path fill="none" stroke="currentColor" stroke-linejoin="round" stroke-linecap="round" stroke-miterlimit="4" stroke-width="2.56" d="M7.467 25.956h5.689M24.533 25.968v-0.013M1.778 7.467c0-4.708 0.981-5.689 5.689-5.689h17.067c4.708 0 5.689 0.981 5.689 5.689v17.067c0 4.708-0.981 5.689-5.689 5.689h-17.067c-4.708 0-5.689-0.981-5.689-5.689v-17.067z"></path>
  <path fill="none" stroke="currentColor" stroke-linejoin="round" stroke-linecap="round" stroke-miterlimit="4" stroke-width="2.56" d="M16 18.844c3.142 0 5.689-2.547 5.689-5.689s-2.547-5.689-5.689-5.689-5.689 2.547-5.689 5.689c0 3.142 2.547 5.689 5.689 5.689z"></path>
  <path fill="none" stroke="currentColor" stroke-linejoin="round" stroke-linecap="round" stroke-miterlimit="4" stroke-width="2.56" d="M20.978 13.156h2.133M16 18.133v2.133M11.022 13.156h-2.133M16 8.178v-2.133"></path>
</symbol>
<symbol id="icon-microwave" viewBox="0 0 38 32">
  <path fill="none" stroke="currentColor" stroke-linejoin="round" stroke-linecap="round" stroke-miterlimit="4" stroke-width="2.56" d="M32.853 1.707h-27.307c-1.885 0-3.413 1.528-3.413 3.413v18.773c0 1.885 1.528 3.413 3.413 3.413h27.307c1.885 0 3.413-1.528 3.413-3.413v-18.773c0-1.885-1.528-3.413-3.413-3.413z"></path>
  <path fill="none" stroke="currentColor" stroke-linejoin="round" stroke-linecap="round" stroke-miterlimit="4" stroke-width="2.56" d="M20.907 8.533h-10.24c-0.943 0-1.707 0.764-1.707 1.707v8.533c0 0.943 0.764 1.707 1.707 1.707h10.24c0.943 0 1.707-0.764 1.707-1.707v-8.533c0-0.943-0.764-1.707-1.707-1.707z"></path>
  <path fill="none" stroke="currentColor" stroke-linejoin="round" stroke-linecap="round" stroke-miterlimit="4" stroke-width="2.56" d="M29.44 8.533v11.947M8.96 27.307v3.413M29.44 27.307v3.413"></path>
</symbol>
<symbol id="icon-star" viewBox="0 0 34 32">
<path fill="#f2f4f7" style="fill: var(--color1, #f2f4f7)" d="M16.123 1.788c0.4-0.759 1.487-0.759 1.887 0l4.028 7.635c0.154 0.293 0.436 0.497 0.761 0.553l8.506 1.472c0.845 0.146 1.181 1.179 0.583 1.794l-6.017 6.19c-0.23 0.237-0.338 0.568-0.291 0.895l1.229 8.544c0.122 0.849-0.757 1.488-1.526 1.109l-7.747-3.809c-0.297-0.146-0.645-0.146-0.941 0l-7.747 3.809c-0.77 0.378-1.649-0.26-1.526-1.109l1.229-8.544c0.047-0.327-0.060-0.658-0.291-0.895l-6.016-6.19c-0.598-0.615-0.262-1.648 0.583-1.794l8.506-1.472c0.326-0.056 0.607-0.261 0.762-0.553l4.028-7.635z"></path>
</symbol>
<symbol id="icon-fridge" viewBox="0 0 32 32">
<path d="M23.667 9.333c0-0.265-0.105-0.52-0.293-0.707s-0.442-0.293-0.707-0.293c-0.265 0-0.52 0.105-0.707 0.293s-0.293 0.442-0.293 0.707v2.667c0 0.265 0.105 0.52 0.293 0.707s0.442 0.293 0.707 0.293c0.265 0 0.52-0.105 0.707-0.293s0.293-0.442 0.293-0.707v-2.667zM23.667 18.667c0-0.265-0.105-0.52-0.293-0.707s-0.442-0.293-0.707-0.293c-0.265 0-0.52 0.105-0.707 0.293s-0.293 0.442-0.293 0.707v2.667c0 0.265 0.105 0.52 0.293 0.707s0.442 0.293 0.707 0.293c0.265 0 0.52-0.105 0.707-0.293s0.293-0.442 0.293-0.707v-2.667z"></path>
<path d="M16.075 1.667h-0.149c-2.451 0-4.392 0-5.911 0.204-1.563 0.211-2.828 0.653-3.827 1.651-0.997 0.999-1.44 2.264-1.651 3.827-0.204 1.52-0.204 3.46-0.204 5.911v4.149c0 2.451 0 4.392 0.204 5.911 0.211 1.563 0.653 2.828 1.651 3.827 0.613 0.612 1.325 1.015 2.145 1.284v0.904c0 0.552 0.448 1 1 1h1.333c0.265 0 0.52-0.105 0.707-0.293s0.293-0.442 0.293-0.707v-0.395c1.209 0.061 2.62 0.061 4.259 0.061h0.149c1.64 0 3.049 0 4.259-0.061v0.395c0 0.552 0.448 1 1 1h1.333c0.265 0 0.52-0.105 0.707-0.293s0.293-0.442 0.293-0.707v-0.904c0.82-0.269 1.533-0.672 2.145-1.284 0.997-0.999 1.44-2.264 1.651-3.827 0.204-1.52 0.204-3.46 0.204-5.911v-4.148c0-2.451 0-4.392-0.204-5.911-0.211-1.563-0.653-2.828-1.651-3.827-0.999-0.997-2.264-1.44-3.827-1.651-1.52-0.204-3.46-0.204-5.911-0.204zM7.603 4.936c0.564-0.564 1.337-0.903 2.679-1.083 1.371-0.184 3.176-0.187 5.719-0.187s4.349 0.003 5.72 0.187c1.34 0.18 2.113 0.519 2.677 1.083s0.903 1.337 1.083 2.679c0.184 1.371 0.187 3.176 0.187 5.719v1h-19.333v-1c0-2.543 0.003-4.348 0.187-5.72 0.18-1.34 0.519-2.113 1.083-2.677zM6.333 16.333h19.333v1c0 2.543-0.003 4.349-0.187 5.72-0.18 1.34-0.519 2.113-1.083 2.677s-1.337 0.903-2.679 1.083c-1.371 0.184-3.176 0.187-5.719 0.187s-4.348-0.003-5.72-0.187c-1.34-0.18-2.113-0.519-2.677-1.083s-0.903-1.337-1.083-2.679c-0.184-1.369-0.187-3.176-0.187-5.719v-1z"></path>
</symbol>
<symbol id="icon-wall" viewBox="0 0 32 32">
<path d="M31.634 0.226c0.115 0.094 0.207 0.212 0.27 0.346s0.096 0.28 0.096 0.428v28c-0 0.231-0.080 0.455-0.227 0.634s-0.351 0.301-0.577 0.346l-10 2c-0.129 0.026-0.263 0.026-0.392 0l-9.804-1.96-9.804 1.96c-0.145 0.029-0.295 0.025-0.438-0.010s-0.277-0.103-0.392-0.197c-0.114-0.094-0.207-0.212-0.27-0.345s-0.096-0.28-0.096-0.428v-28c0-0.231 0.080-0.455 0.227-0.634s0.351-0.301 0.577-0.346l10-2c0.129-0.026 0.263-0.026 0.392 0l9.804 1.96 9.804-1.96c0.145-0.029 0.295-0.026 0.438 0.010s0.277 0.103 0.392 0.196zM20 3.82l-8-1.6v25.96l8 1.6v-25.96zM22 29.78l8-1.6v-25.96l-8 1.6v25.96zM10 28.18v-25.96l-8 1.6v25.96l8-1.6z"></path>
</symbol>
<symbol id="icon-ac" viewBox="0 0 37 32">
<path d="M28.571 2.286c-1.516 0-2.969 0.602-4.041 1.674s-1.674 2.525-1.674 4.041c0 0.303-0.12 0.594-0.335 0.808s-0.505 0.335-0.808 0.335c-0.303 0-0.594-0.12-0.808-0.335s-0.335-0.505-0.335-0.808c0-1.582 0.469-3.129 1.348-4.445s2.128-2.341 3.59-2.946c1.462-0.606 3.070-0.764 4.622-0.455s2.977 1.071 4.096 2.189c1.119 1.119 1.881 2.544 2.19 4.096s0.15 3.16-0.455 4.622c-0.606 1.462-1.631 2.711-2.947 3.59s-2.862 1.348-4.445 1.348h-27.429c-0.303 0-0.594-0.12-0.808-0.335s-0.335-0.505-0.335-0.808c0-0.303 0.12-0.594 0.335-0.808s0.505-0.335 0.808-0.335h27.429c1.516 0 2.969-0.602 4.041-1.674s1.674-2.525 1.674-4.041-0.602-2.969-1.674-4.041c-1.072-1.072-2.525-1.674-4.041-1.674zM12.571 4.571c-0.606 0-1.188 0.241-1.616 0.669s-0.669 1.010-0.669 1.616c0 0.303-0.12 0.594-0.335 0.808s-0.505 0.335-0.808 0.335c-0.303 0-0.594-0.12-0.808-0.335s-0.335-0.505-0.335-0.808c0-0.904 0.268-1.788 0.77-2.54s1.216-1.338 2.052-1.684c0.835-0.346 1.754-0.437 2.641-0.26s1.701 0.612 2.341 1.251 1.075 1.454 1.251 2.341c0.176 0.887 0.086 1.806-0.26 2.641s-0.932 1.549-1.684 2.052-1.636 0.77-2.54 0.77h-11.429c-0.303 0-0.594-0.12-0.808-0.335s-0.335-0.505-0.335-0.808c0-0.303 0.12-0.594 0.335-0.808s0.505-0.335 0.808-0.335h11.429c0.606 0 1.188-0.241 1.616-0.669s0.669-1.010 0.669-1.616c0-0.606-0.241-1.188-0.669-1.616s-1.010-0.669-1.616-0.669zM0 19.429c0-0.303 0.12-0.594 0.335-0.808s0.505-0.335 0.808-0.335h22.953c1.356 0 2.682 0.402 3.81 1.156s2.007 1.824 2.526 3.077c0.519 1.253 0.655 2.632 0.39 3.962s-0.918 2.552-1.877 3.511c-0.959 0.959-2.181 1.612-3.511 1.877s-2.709 0.129-3.962-0.39-2.324-1.398-3.077-2.526c-0.753-1.128-1.156-2.453-1.156-3.81 0-0.303 0.12-0.594 0.335-0.808s0.505-0.335 0.808-0.335c0.303 0 0.594 0.12 0.808 0.335s0.335 0.505 0.335 0.808c0 0.904 0.268 1.788 0.77 2.54s1.216 1.338 2.052 1.684c0.835 0.346 1.754 0.437 2.641 0.26s1.701-0.612 2.341-1.251 1.075-1.454 1.251-2.341c0.176-0.887 0.086-1.806-0.26-2.641s-0.932-1.549-1.684-2.052-1.636-0.77-2.54-0.77h-22.953c-0.303 0-0.594-0.12-0.808-0.335s-0.335-0.505-0.335-0.808z"></path>
</symbol>
<symbol id="icon-logo" viewBox="0 0 272 32">
<path fill="#475467" style="fill: var(--color2, #475467)" d="M270.786 14.375h-7.216c-0.038-0.445-0.194-0.829-0.47-1.151-0.274-0.322-0.63-0.568-1.064-0.739-0.428-0.18-0.9-0.27-1.422-0.27-0.672 0-1.25 0.123-1.732 0.369-0.484 0.246-0.72 0.597-0.71 1.051-0.010 0.322 0.128 0.62 0.412 0.895 0.292 0.275 0.856 0.488 1.69 0.639l4.432 0.795c2.234 0.407 3.896 1.094 4.986 2.060 1.098 0.956 1.652 2.24 1.662 3.849-0.010 1.553-0.474 2.902-1.392 4.048-0.91 1.136-2.156 2.017-3.736 2.642-1.572 0.615-3.368 0.923-5.384 0.923-3.334 0-5.942-0.682-7.826-2.045-1.876-1.364-2.922-3.163-3.14-5.398h7.784c0.104 0.691 0.446 1.226 1.022 1.605 0.588 0.369 1.326 0.554 2.216 0.554 0.72 0 1.312-0.123 1.776-0.369 0.474-0.246 0.716-0.597 0.724-1.051-0.008-0.417-0.218-0.748-0.624-0.994-0.398-0.246-1.024-0.445-1.876-0.597l-3.862-0.682c-2.226-0.388-3.892-1.127-5-2.216s-1.658-2.491-1.648-4.205c-0.010-1.515 0.388-2.798 1.192-3.849 0.814-1.061 1.974-1.866 3.48-2.415 1.516-0.559 3.31-0.838 5.384-0.838 3.154 0 5.64 0.653 7.458 1.96 1.828 1.307 2.788 3.116 2.884 5.426z"></path>
<path fill="#475467" style="fill: var(--color2, #475467)" d="M232.83 23.92l0.056-9.318h1.024l5.284-7.33h8.806l-8.864 11.42h-2.216l-4.090 5.227zM225.784 29.091v-29.091h7.842v29.091h-7.842zM239.25 29.091l-5-8.636 5.114-5.568 8.864 14.205h-8.978z"></path>
<path fill="#475467" style="fill: var(--color2, #475467)" d="M211.238 29.489c-2.368 0-4.394-0.469-6.080-1.406-1.686-0.947-2.978-2.263-3.878-3.949-0.9-1.695-1.349-3.66-1.349-5.895s0.449-4.195 1.349-5.881c0.9-1.695 2.192-3.011 3.878-3.949 1.686-0.947 3.712-1.42 6.080-1.42 2.14 0 3.992 0.388 5.554 1.165 1.572 0.767 2.788 1.856 3.65 3.267 0.862 1.402 1.298 3.049 1.308 4.943h-7.274c-0.104-1.146-0.436-2.017-0.994-2.614-0.55-0.606-1.26-0.909-2.13-0.909-0.682 0-1.28 0.199-1.79 0.597-0.512 0.388-0.91 0.98-1.194 1.776-0.284 0.786-0.426 1.776-0.426 2.969s0.142 2.188 0.426 2.983c0.284 0.786 0.682 1.378 1.194 1.776 0.51 0.388 1.108 0.582 1.79 0.582 0.578 0 1.088-0.133 1.534-0.398 0.444-0.275 0.804-0.672 1.080-1.193 0.284-0.53 0.454-1.174 0.51-1.932h7.274c-0.030 1.922-0.47 3.598-1.322 5.028-0.852 1.42-2.060 2.519-3.622 3.295-1.554 0.777-3.41 1.165-5.568 1.165z"></path>
<path fill="#475467" style="fill: var(--color2, #475467)" d="M188.097 19.545v-12.273h7.841v21.818h-7.443v-4.148h-0.227c-0.473 1.392-1.302 2.481-2.486 3.267-1.184 0.777-2.59 1.165-4.219 1.165-1.525 0-2.86-0.35-4.006-1.051-1.136-0.701-2.022-1.667-2.656-2.898-0.625-1.231-0.942-2.642-0.952-4.233v-13.921h7.841v12.273c0.009 1.080 0.284 1.927 0.824 2.543 0.549 0.616 1.316 0.923 2.301 0.923 0.653 0 1.217-0.137 1.69-0.412 0.483-0.284 0.852-0.682 1.108-1.193 0.265-0.521 0.393-1.141 0.383-1.861z"></path>
<path fill="#475467" style="fill: var(--color2, #475467)" d="M155.806 29.091v-21.818h7.614v4.148h0.227c0.398-1.534 1.027-2.656 1.889-3.366 0.871-0.71 1.889-1.065 3.054-1.065 0.341 0 0.677 0.028 1.009 0.085 0.341 0.047 0.668 0.118 0.98 0.213v6.69c-0.388-0.133-0.866-0.232-1.435-0.298s-1.056-0.099-1.463-0.099c-0.767 0-1.458 0.175-2.074 0.526-0.606 0.341-1.084 0.824-1.435 1.449-0.35 0.616-0.526 1.34-0.526 2.173v11.364h-7.841z"></path>
<path fill="#475467" style="fill: var(--color2, #475467)" d="M128.902 6.364v-6.364h25.284v6.364h-8.75v22.727h-7.784v-22.727h-8.75z"></path>
<path fill="#101828" style="fill: var(--color3, #101828)" d="M125.016 0v29.091h-7.841v-29.091h7.841z"></path>
<path fill="#101828" style="fill: var(--color3, #101828)" d="M102.493 29.489c-2.33 0-4.337-0.445-6.023-1.335-1.676-0.9-2.969-2.187-3.878-3.864-0.9-1.686-1.349-3.703-1.349-6.051 0-2.254 0.455-4.223 1.364-5.909s2.192-2.997 3.849-3.935 3.613-1.406 5.867-1.406c1.648 0 3.139 0.256 4.474 0.767s2.476 1.255 3.423 2.23c0.947 0.966 1.676 2.14 2.188 3.523s0.767 2.94 0.767 4.673v1.818h-19.489v-4.318h12.273c-0.010-0.625-0.171-1.174-0.483-1.648-0.303-0.483-0.715-0.857-1.236-1.122-0.511-0.275-1.094-0.412-1.747-0.412-0.634 0-1.217 0.137-1.747 0.412-0.53 0.265-0.956 0.634-1.278 1.108-0.312 0.473-0.478 1.027-0.497 1.662v4.659c0 0.701 0.147 1.326 0.44 1.875s0.715 0.98 1.264 1.293c0.549 0.312 1.212 0.469 1.989 0.469 0.54 0 1.032-0.076 1.477-0.227 0.454-0.152 0.843-0.369 1.165-0.653 0.322-0.294 0.559-0.644 0.71-1.051h7.159c-0.246 1.515-0.829 2.832-1.747 3.949-0.918 1.108-2.135 1.97-3.651 2.585-1.506 0.606-3.267 0.909-5.284 0.909z"></path>
<path fill="#101828" style="fill: var(--color3, #101828)" d="M89.673 7.273l-7.329 21.818h-9.091l-7.33-21.818h8.239l3.523 14.432h0.227l3.523-14.432h8.239z"></path>
<path fill="#101828" style="fill: var(--color3, #101828)" d="M50.112 29.432c-1.392 0-2.623-0.227-3.693-0.682-1.061-0.464-1.894-1.165-2.5-2.102s-0.909-2.131-0.909-3.58c0-1.193 0.204-2.211 0.611-3.054 0.407-0.852 0.975-1.548 1.705-2.088s1.577-0.952 2.543-1.236c0.975-0.284 2.026-0.469 3.153-0.554 1.222-0.095 2.202-0.208 2.94-0.341 0.748-0.142 1.288-0.336 1.619-0.582 0.331-0.256 0.497-0.592 0.497-1.009v-0.057c0-0.568-0.218-1.004-0.653-1.307s-0.994-0.455-1.676-0.455c-0.748 0-1.359 0.166-1.832 0.497-0.464 0.322-0.743 0.819-0.838 1.491h-7.216c0.095-1.326 0.516-2.547 1.264-3.665 0.758-1.127 1.861-2.027 3.31-2.699 1.449-0.682 3.257-1.023 5.426-1.023 1.563 0 2.964 0.185 4.205 0.554 1.241 0.36 2.296 0.866 3.168 1.52 0.871 0.644 1.534 1.402 1.989 2.273 0.464 0.862 0.696 1.799 0.696 2.813v14.943h-7.329v-3.068h-0.171c-0.436 0.814-0.966 1.472-1.591 1.974-0.616 0.502-1.321 0.866-2.117 1.094-0.786 0.227-1.652 0.341-2.599 0.341zM52.669 24.489c0.597 0 1.155-0.123 1.676-0.369 0.53-0.246 0.961-0.601 1.293-1.065s0.497-1.027 0.497-1.69v-1.818c-0.208 0.085-0.431 0.166-0.668 0.241-0.227 0.076-0.474 0.147-0.739 0.213-0.256 0.066-0.53 0.128-0.824 0.185-0.284 0.057-0.582 0.109-0.895 0.156-0.606 0.095-1.103 0.251-1.492 0.469-0.379 0.208-0.663 0.469-0.852 0.781-0.18 0.303-0.27 0.644-0.27 1.023 0 0.606 0.213 1.070 0.639 1.392s0.971 0.483 1.633 0.483z"></path>
<path fill="#101828" style="fill: var(--color3, #101828)" d="M26.904 29.091v-21.818h7.614v4.148h0.227c0.398-1.534 1.027-2.656 1.889-3.366 0.871-0.71 1.889-1.065 3.054-1.065 0.341 0 0.677 0.028 1.009 0.085 0.341 0.047 0.668 0.118 0.98 0.213v6.69c-0.388-0.133-0.866-0.232-1.435-0.298s-1.056-0.099-1.463-0.099c-0.767 0-1.458 0.175-2.074 0.526-0.606 0.341-1.084 0.824-1.435 1.449-0.35 0.616-0.526 1.34-0.526 2.173v11.364h-7.841z"></path>
<path fill="#101828" style="fill: var(--color3, #101828)" d="M0 6.364v-6.364h25.284v6.364h-8.75v22.727h-7.784v-22.727h-8.75z"></path>
</symbol>
<symbol id="icon-diagram" viewBox="0 0 43 32">
<path d="M16 4c0-1.061 0.421-2.078 1.172-2.828s1.768-1.172 2.828-1.172h2.667c1.061 0 2.078 0.421 2.828 1.172s1.172 1.768 1.172 2.828v2.667c0 1.061-0.421 2.078-1.172 2.828s-1.768 1.172-2.828 1.172v2.667h14.667c0.354 0 0.693 0.141 0.943 0.391s0.391 0.589 0.391 0.943v2.667c0 0.354-0.141 0.693-0.391 0.943s-0.589 0.391-0.943 0.391c-0.354 0-0.693-0.141-0.943-0.391s-0.391-0.589-0.391-0.943v-1.333h-13.333v1.333c0 0.354-0.141 0.693-0.391 0.943s-0.589 0.391-0.943 0.391c-0.354 0-0.693-0.141-0.943-0.391s-0.391-0.589-0.391-0.943v-1.333h-13.333v1.333c0 0.354-0.14 0.693-0.391 0.943s-0.589 0.391-0.943 0.391c-0.354 0-0.693-0.141-0.943-0.391s-0.391-0.589-0.391-0.943v-2.667c0-0.354 0.14-0.693 0.391-0.943s0.589-0.391 0.943-0.391h14.667v-2.667c-1.061 0-2.078-0.421-2.828-1.172s-1.172-1.768-1.172-2.828v-2.667zM22.667 8c0.354 0 0.693-0.14 0.943-0.391s0.391-0.589 0.391-0.943v-2.667c0-0.354-0.141-0.693-0.391-0.943s-0.589-0.391-0.943-0.391h-2.667c-0.354 0-0.693 0.14-0.943 0.391s-0.391 0.589-0.391 0.943v2.667c0 0.354 0.141 0.693 0.391 0.943s0.589 0.391 0.943 0.391h2.667zM0 25.333c0-1.061 0.421-2.078 1.172-2.828s1.768-1.172 2.828-1.172h2.667c1.061 0 2.078 0.421 2.828 1.172s1.172 1.768 1.172 2.828v2.667c0 1.061-0.421 2.078-1.172 2.828s-1.768 1.172-2.828 1.172h-2.667c-1.061 0-2.078-0.421-2.828-1.172s-1.172-1.768-1.172-2.828v-2.667zM4 24c-0.354 0-0.693 0.141-0.943 0.391s-0.391 0.589-0.391 0.943v2.667c0 0.354 0.14 0.693 0.391 0.943s0.589 0.391 0.943 0.391h2.667c0.354 0 0.693-0.141 0.943-0.391s0.391-0.589 0.391-0.943v-2.667c0-0.354-0.14-0.693-0.391-0.943s-0.589-0.391-0.943-0.391h-2.667zM16 25.333c0-1.061 0.421-2.078 1.172-2.828s1.768-1.172 2.828-1.172h2.667c1.061 0 2.078 0.421 2.828 1.172s1.172 1.768 1.172 2.828v2.667c0 1.061-0.421 2.078-1.172 2.828s-1.768 1.172-2.828 1.172h-2.667c-1.061 0-2.078-0.421-2.828-1.172s-1.172-1.768-1.172-2.828v-2.667zM20 24c-0.354 0-0.693 0.141-0.943 0.391s-0.391 0.589-0.391 0.943v2.667c0 0.354 0.141 0.693 0.391 0.943s0.589 0.391 0.943 0.391h2.667c0.354 0 0.693-0.141 0.943-0.391s0.391-0.589 0.391-0.943v-2.667c0-0.354-0.141-0.693-0.391-0.943s-0.589-0.391-0.943-0.391h-2.667zM32 25.333c0-1.061 0.421-2.078 1.172-2.828s1.768-1.172 2.828-1.172h2.667c1.061 0 2.078 0.421 2.828 1.172s1.172 1.768 1.172 2.828v2.667c0 1.061-0.421 2.078-1.172 2.828s-1.768 1.172-2.828 1.172h-2.667c-1.061 0-2.078-0.421-2.828-1.172s-1.172-1.768-1.172-2.828v-2.667zM36 24c-0.354 0-0.693 0.141-0.943 0.391s-0.391 0.589-0.391 0.943v2.667c0 0.354 0.141 0.693 0.391 0.943s0.589 0.391 0.943 0.391h2.667c0.354 0 0.693-0.141 0.943-0.391s0.391-0.589 0.391-0.943v-2.667c0-0.354-0.141-0.693-0.391-0.943s-0.589-0.391-0.943-0.391h-2.667z"></path>
</symbol>
<symbol id="icon-comp" viewBox="0 0 41 32">
<path d="M0 5.12c0 0 0-5.12 5.12-5.12h30.72c0 0 5.12 0 5.12 5.12v15.36c0 0 0 5.12-5.12 5.12h-10.24c0 1.707 0.213 2.987 0.64 3.84h1.92c0.339 0 0.665 0.135 0.905 0.375s0.375 0.566 0.375 0.905c0 0.339-0.135 0.665-0.375 0.905s-0.566 0.375-0.905 0.375h-15.36c-0.339 0-0.665-0.135-0.905-0.375s-0.375-0.566-0.375-0.905c0-0.339 0.135-0.665 0.375-0.905s0.566-0.375 0.905-0.375h1.92c0.427-0.853 0.64-2.133 0.64-3.84h-10.24c0 0-5.12 0-5.12-5.12v-15.36zM3.579 2.931c-0.281 0.196-0.505 0.463-0.65 0.773-0.216 0.452-0.341 0.941-0.369 1.441v15.334c0 0.832 0.2 1.285 0.371 1.541 0.179 0.266 0.437 0.483 0.773 0.65 0.432 0.207 0.899 0.331 1.377 0.366l0.064 0.003h30.694c0.832 0 1.285-0.2 1.541-0.371 0.281-0.196 0.505-0.463 0.65-0.773 0.207-0.432 0.331-0.899 0.366-1.377l0.003-0.064v-15.334c0-0.832-0.2-1.285-0.371-1.541-0.196-0.281-0.463-0.505-0.773-0.65-0.452-0.216-0.941-0.341-1.441-0.369h-30.694c-0.832 0-1.285 0.2-1.541 0.371z"></path>
</symbol>
<symbol id="icon-3s" viewBox="0 0 32 32">
<path d="M12 2h-10v28h10v-28zM30 2h-10v10h10v-10zM30 20v10h-10v-10h10zM0 2c0-0.53 0.211-1.039 0.586-1.414s0.884-0.586 1.414-0.586h10c0.53 0 1.039 0.211 1.414 0.586s0.586 0.884 0.586 1.414v28c0 0.53-0.211 1.039-0.586 1.414s-0.884 0.586-1.414 0.586h-10c-0.53 0-1.039-0.211-1.414-0.586s-0.586-0.884-0.586-1.414v-28zM18 2c0-0.53 0.211-1.039 0.586-1.414s0.884-0.586 1.414-0.586h10c0.53 0 1.039 0.211 1.414 0.586s0.586 0.884 0.586 1.414v10c0 0.53-0.211 1.039-0.586 1.414s-0.884 0.586-1.414 0.586h-10c-0.53 0-1.039-0.211-1.414-0.586s-0.586-0.884-0.586-1.414v-10zM20 18c-0.53 0-1.039 0.211-1.414 0.586s-0.586 0.884-0.586 1.414v10c0 0.53 0.211 1.039 0.586 1.414s0.884 0.586 1.414 0.586h10c0.53 0 1.039-0.211 1.414-0.586s0.586-0.884 0.586-1.414v-10c0-0.53-0.211-1.039-0.586-1.414s-0.884-0.586-1.414-0.586h-10z"></path>
</symbol>
<symbol id="icon-shower" viewBox="0 0 37 32">
<path d="M8.296 30.222c0 0.352-0.104 0.695-0.3 0.988s-0.473 0.52-0.798 0.655-0.682 0.17-1.027 0.101c-0.345-0.069-0.662-0.238-0.91-0.487s-0.418-0.565-0.487-0.91c-0.069-0.345-0.033-0.702 0.101-1.027s0.362-0.603 0.655-0.798c0.292-0.195 0.636-0.3 0.988-0.3 0.471 0 0.924 0.187 1.257 0.521s0.521 0.786 0.521 1.257zM11.259 23.704c-0.352 0-0.695 0.104-0.988 0.3s-0.52 0.473-0.655 0.798c-0.135 0.325-0.17 0.682-0.101 1.027s0.238 0.662 0.487 0.91c0.249 0.249 0.565 0.418 0.91 0.487s0.702 0.033 1.027-0.101c0.325-0.135 0.603-0.362 0.798-0.655s0.3-0.636 0.3-0.988c0-0.471-0.187-0.924-0.521-1.257s-0.786-0.521-1.257-0.521zM1.778 23.704c-0.352 0-0.695 0.104-0.988 0.3s-0.52 0.473-0.655 0.798c-0.135 0.325-0.17 0.682-0.101 1.027s0.238 0.662 0.487 0.91c0.249 0.249 0.565 0.418 0.91 0.487s0.702 0.033 1.027-0.101c0.325-0.135 0.603-0.362 0.798-0.655s0.3-0.636 0.3-0.988c0-0.471-0.187-0.924-0.521-1.257s-0.786-0.521-1.257-0.521zM6.519 18.963c-0.352 0-0.695 0.104-0.988 0.3s-0.52 0.473-0.655 0.798c-0.135 0.325-0.17 0.682-0.101 1.027s0.238 0.662 0.487 0.91c0.249 0.249 0.565 0.418 0.91 0.487s0.702 0.033 1.027-0.101c0.325-0.135 0.603-0.362 0.798-0.655s0.3-0.636 0.3-0.988c0-0.471-0.187-0.924-0.521-1.257s-0.786-0.521-1.257-0.521zM36.741 1.185c0 0.314-0.125 0.616-0.347 0.838s-0.524 0.347-0.838 0.347h-4.25l-4.126 4.127-3.209 18.784c-0.072 0.429-0.261 0.83-0.546 1.159s-0.655 0.573-1.070 0.705c-0.414 0.133-0.857 0.148-1.28 0.046s-0.809-0.32-1.117-0.627l-14.519-14.519c-0.308-0.308-0.525-0.695-0.628-1.118s-0.086-0.867 0.047-1.282c0.133-0.415 0.378-0.785 0.708-1.070s0.731-0.473 1.161-0.545l18.776-3.21 4.474-4.474c0.11-0.11 0.241-0.197 0.385-0.257s0.298-0.090 0.454-0.090h4.741c0.314 0 0.616 0.125 0.838 0.347s0.347 0.524 0.347 0.838zM24.624 7.376l-17.513 2.994 14.519 14.519 2.994-17.513z"></path>
</symbol>
<symbol id="icon-4s" viewBox="0 0 32 32">
<path d="M0 3.429c0-0.909 0.361-1.781 1.004-2.424s1.515-1.004 2.424-1.004h6.857c0.909 0 1.781 0.361 2.424 1.004s1.004 1.515 1.004 2.424v6.857c0 0.909-0.361 1.781-1.004 2.424s-1.515 1.004-2.424 1.004h-6.857c-0.909 0-1.781-0.361-2.424-1.004s-1.004-1.515-1.004-2.424v-6.857zM3.429 2.286c-0.303 0-0.594 0.12-0.808 0.335s-0.335 0.505-0.335 0.808v6.857c0 0.303 0.12 0.594 0.335 0.808s0.505 0.335 0.808 0.335h6.857c0.303 0 0.594-0.12 0.808-0.335s0.335-0.505 0.335-0.808v-6.857c0-0.303-0.12-0.594-0.335-0.808s-0.505-0.335-0.808-0.335h-6.857zM18.286 3.429c0-0.909 0.361-1.781 1.004-2.424s1.515-1.004 2.424-1.004h6.857c0.909 0 1.781 0.361 2.424 1.004s1.004 1.515 1.004 2.424v6.857c0 0.909-0.361 1.781-1.004 2.424s-1.515 1.004-2.424 1.004h-6.857c-0.909 0-1.781-0.361-2.424-1.004s-1.004-1.515-1.004-2.424v-6.857zM21.714 2.286c-0.303 0-0.594 0.12-0.808 0.335s-0.335 0.505-0.335 0.808v6.857c0 0.303 0.12 0.594 0.335 0.808s0.505 0.335 0.808 0.335h6.857c0.303 0 0.594-0.12 0.808-0.335s0.335-0.505 0.335-0.808v-6.857c0-0.303-0.12-0.594-0.335-0.808s-0.505-0.335-0.808-0.335h-6.857zM0 21.714c0-0.909 0.361-1.781 1.004-2.424s1.515-1.004 2.424-1.004h6.857c0.909 0 1.781 0.361 2.424 1.004s1.004 1.515 1.004 2.424v6.857c0 0.909-0.361 1.781-1.004 2.424s-1.515 1.004-2.424 1.004h-6.857c-0.909 0-1.781-0.361-2.424-1.004s-1.004-1.515-1.004-2.424v-6.857zM3.429 20.571c-0.303 0-0.594 0.12-0.808 0.335s-0.335 0.505-0.335 0.808v6.857c0 0.303 0.12 0.594 0.335 0.808s0.505 0.335 0.808 0.335h6.857c0.303 0 0.594-0.12 0.808-0.335s0.335-0.505 0.335-0.808v-6.857c0-0.303-0.12-0.594-0.335-0.808s-0.505-0.335-0.808-0.335h-6.857zM18.286 21.714c0-0.909 0.361-1.781 1.004-2.424s1.515-1.004 2.424-1.004h6.857c0.909 0 1.781 0.361 2.424 1.004s1.004 1.515 1.004 2.424v6.857c0 0.909-0.361 1.781-1.004 2.424s-1.515 1.004-2.424 1.004h-6.857c-0.909 0-1.781-0.361-2.424-1.004s-1.004-1.515-1.004-2.424v-6.857zM21.714 20.571c-0.303 0-0.594 0.12-0.808 0.335s-0.335 0.505-0.335 0.808v6.857c0 0.303 0.12 0.594 0.335 0.808s0.505 0.335 0.808 0.335h6.857c0.303 0 0.594-0.12 0.808-0.335s0.335-0.505 0.335-0.808v-6.857c0-0.303-0.12-0.594-0.335-0.808s-0.505-0.335-0.808-0.335h-6.857z"></path>
</symbol>
<symbol id="icon-9s" viewBox="0 0 32 32">
<path d="M6.857 2.286v4.571h-4.571v-4.571h4.571zM9.143 29.714v-4.571c0-0.606-0.241-1.188-0.669-1.616s-1.010-0.669-1.616-0.669h-4.571c-0.606 0-1.188 0.241-1.616 0.669s-0.669 1.010-0.669 1.616v4.571c0 0.606 0.241 1.188 0.669 1.616s1.010 0.669 1.616 0.669h4.571c0.606 0 1.188-0.241 1.616-0.669s0.669-1.010 0.669-1.616zM9.143 18.286v-4.571c0-0.606-0.241-1.188-0.669-1.616s-1.010-0.669-1.616-0.669h-4.571c-0.606 0-1.188 0.241-1.616 0.669s-0.669 1.010-0.669 1.616v4.571c0 0.606 0.241 1.188 0.669 1.616s1.010 0.669 1.616 0.669h4.571c0.606 0 1.188-0.241 1.616-0.669s0.669-1.010 0.669-1.616zM9.143 6.857v-4.571c0-0.606-0.241-1.188-0.669-1.616s-1.010-0.669-1.616-0.669h-4.571c-0.606 0-1.188 0.241-1.616 0.669s-0.669 1.010-0.669 1.616v4.571c0 0.606 0.241 1.188 0.669 1.616s1.010 0.669 1.616 0.669h4.571c0.606 0 1.188-0.241 1.616-0.669s0.669-1.010 0.669-1.616zM20.571 29.714v-4.571c0-0.606-0.241-1.188-0.669-1.616s-1.010-0.669-1.616-0.669h-4.571c-0.606 0-1.188 0.241-1.616 0.669s-0.669 1.010-0.669 1.616v4.571c0 0.606 0.241 1.188 0.669 1.616s1.010 0.669 1.616 0.669h4.571c0.606 0 1.188-0.241 1.616-0.669s0.669-1.010 0.669-1.616zM20.571 18.286v-4.571c0-0.606-0.241-1.188-0.669-1.616s-1.010-0.669-1.616-0.669h-4.571c-0.606 0-1.188 0.241-1.616 0.669s-0.669 1.010-0.669 1.616v4.571c0 0.606 0.241 1.188 0.669 1.616s1.010 0.669 1.616 0.669h4.571c0.606 0 1.188-0.241 1.616-0.669s0.669-1.010 0.669-1.616zM20.571 6.857v-4.571c0-0.606-0.241-1.188-0.669-1.616s-1.010-0.669-1.616-0.669h-4.571c-0.606 0-1.188 0.241-1.616 0.669s-0.669 1.010-0.669 1.616v4.571c0 0.606 0.241 1.188 0.669 1.616s1.010 0.669 1.616 0.669h4.571c0.606 0 1.188-0.241 1.616-0.669s0.669-1.010 0.669-1.616zM18.286 2.286v4.571h-4.571v-4.571h4.571zM29.714 2.286v4.571h-4.571v-4.571h4.571zM6.857 13.714v4.571h-4.571v-4.571h4.571zM18.286 13.714v4.571h-4.571v-4.571h4.571zM29.714 13.714h-4.571v4.571h4.571v-4.571zM6.857 25.143v4.571h-4.571v-4.571h4.571zM18.286 25.143v4.571h-4.571v-4.571h4.571zM29.714 25.143v4.571h-4.571v-4.571h4.571zM25.143 0c-0.606 0-1.188 0.241-1.616 0.669s-0.669 1.010-0.669 1.616v4.571c0 0.606 0.241 1.188 0.669 1.616s1.010 0.669 1.616 0.669h4.571c0.606 0 1.188-0.241 1.616-0.669s0.669-1.010 0.669-1.616v-4.571c0-0.606-0.241-1.188-0.669-1.616s-1.010-0.669-1.616-0.669h-4.571zM22.857 13.714c0-0.606 0.241-1.188 0.669-1.616s1.010-0.669 1.616-0.669h4.571c0.606 0 1.188 0.241 1.616 0.669s0.669 1.010 0.669 1.616v4.571c0 0.606-0.241 1.188-0.669 1.616s-1.010 0.669-1.616 0.669h-4.571c-0.606 0-1.188-0.241-1.616-0.669s-0.669-1.010-0.669-1.616v-4.571zM25.143 22.857c-0.606 0-1.188 0.241-1.616 0.669s-0.669 1.010-0.669 1.616v4.571c0 0.606 0.241 1.188 0.669 1.616s1.010 0.669 1.616 0.669h4.571c0.606 0 1.188-0.241 1.616-0.669s0.669-1.010 0.669-1.616v-4.571c0-0.606-0.241-1.188-0.669-1.616s-1.010-0.669-1.616-0.669h-4.571z"></path>
</symbol>
<symbol id="icon-like" viewBox="0 0 37 32">
<path d="M18.286 11.968l-2.043-4.089c-0.507-1.013-1.387-2.469-2.633-3.646-1.225-1.159-2.693-1.947-4.466-1.947-3.831 0-6.857 3.031-6.857 6.674 0 2.768 1.266 4.722 4.27 7.703 0.77 0.763 1.648 1.589 2.619 2.498 2.533 2.377 5.682 5.335 9.111 9.289 3.429-3.954 6.578-6.912 9.111-9.289 0.971-0.91 1.851-1.737 2.619-2.498 3.003-2.981 4.27-4.935 4.27-7.703 0-3.643-3.026-6.674-6.857-6.674-1.776 0-3.241 0.789-4.466 1.947-1.246 1.177-2.126 2.633-2.633 3.646l-2.043 4.089zM19.182 30.921c-0.11 0.13-0.247 0.235-0.402 0.307s-0.323 0.109-0.494 0.109-0.339-0.037-0.494-0.109c-0.155-0.072-0.292-0.177-0.402-0.307-3.659-4.347-6.971-7.456-9.698-10.014-4.72-4.432-7.691-7.218-7.691-11.947 0-4.949 4.091-8.96 9.143-8.96 3.657 0 6.215 2.4 7.781 4.59 0.594 0.834 1.047 1.637 1.362 2.267 0.396-0.789 0.851-1.547 1.362-2.267 1.566-2.192 4.123-4.59 7.781-4.59 5.051 0 9.143 4.011 9.143 8.96 0 4.729-2.971 7.515-7.691 11.947-2.727 2.56-6.039 5.671-9.698 10.014z"></path>
</symbol>
<symbol id="icon-radio" viewBox="0 0 34 32">
<path d="M15.556 3.778c0-0.295 0.117-0.577 0.325-0.786s0.491-0.325 0.786-0.325h15.556c0.295 0 0.577 0.117 0.786 0.325s0.325 0.491 0.325 0.786v2.222c0 0.295-0.117 0.577-0.325 0.786s-0.491 0.325-0.786 0.325h-15.556c-0.295 0-0.577-0.117-0.786-0.325s-0.325-0.491-0.325-0.786v-2.222zM0 24.889c0-1.768 0.702-3.464 1.953-4.714s2.946-1.953 4.714-1.953 3.464 0.702 4.714 1.953c1.25 1.25 1.953 2.946 1.953 4.714s-0.702 3.464-1.953 4.714c-1.25 1.25-2.946 1.953-4.714 1.953s-3.464-0.702-4.714-1.953c-1.25-1.25-1.953-2.946-1.953-4.714zM15.556 21.556c0-0.295 0.117-0.577 0.325-0.786s0.491-0.326 0.786-0.326h15.556c0.295 0 0.577 0.117 0.786 0.326s0.325 0.491 0.325 0.786v2.222c0 0.295-0.117 0.577-0.325 0.786s-0.491 0.326-0.786 0.326h-15.556c-0.295 0-0.577-0.117-0.786-0.326s-0.325-0.491-0.325-0.786v-2.222zM15.556 10.444c0-0.295 0.117-0.577 0.325-0.786s0.491-0.325 0.786-0.325h11.111c0.295 0 0.577 0.117 0.786 0.325s0.326 0.491 0.326 0.786-0.117 0.577-0.326 0.786c-0.208 0.208-0.491 0.325-0.786 0.325h-11.111c-0.295 0-0.577-0.117-0.786-0.325s-0.325-0.491-0.325-0.786zM15.556 28.222c0-0.295 0.117-0.577 0.325-0.786s0.491-0.326 0.786-0.326h11.111c0.295 0 0.577 0.117 0.786 0.326s0.326 0.491 0.326 0.786-0.117 0.577-0.326 0.786c-0.208 0.209-0.491 0.326-0.786 0.326h-11.111c-0.295 0-0.577-0.117-0.786-0.326s-0.325-0.491-0.325-0.786zM6.667 0.444c-0.875 0-1.742 0.172-2.551 0.507s-1.544 0.826-2.163 1.445c-0.619 0.619-1.11 1.354-1.445 2.163s-0.507 1.676-0.507 2.551c0 0.875 0.172 1.742 0.507 2.551s0.826 1.544 1.445 2.163c0.619 0.619 1.354 1.11 2.163 1.445s1.676 0.507 2.551 0.507c1.768 0 3.464-0.702 4.714-1.953s1.953-2.946 1.953-4.714c0-1.768-0.702-3.464-1.953-4.714s-2.946-1.953-4.714-1.953zM6.667 10.444c-0.884 0-1.732-0.351-2.357-0.976s-0.976-1.473-0.976-2.357c0-0.884 0.351-1.732 0.976-2.357s1.473-0.976 2.357-0.976c0.884 0 1.732 0.351 2.357 0.976s0.976 1.473 0.976 2.357c0 0.884-0.351 1.732-0.976 2.357s-1.473 0.976-2.357 0.976z"></path>
</symbol>
<symbol id="icon-water" viewBox="0 0 23 32">
  <path fill="none" stroke="currentColor" stroke-linejoin="miter" stroke-linecap="butt" stroke-miterlimit="10" stroke-width="2.2857" d="M21.714 20.571c0 6.312-3.974 10.286-10.286 10.286s-10.286-3.974-10.286-10.286c0-6.774 7.374-15.918 9.635-18.563 0.080-0.094 0.18-0.169 0.293-0.221s0.235-0.079 0.358-0.079c0.124 0 0.246 0.027 0.358 0.079s0.212 0.127 0.293 0.221c2.261 2.645 9.634 11.789 9.634 18.563z"></path>
</symbol>
<symbol id="icon-yelstar" viewBox="0 0 16 15">
  <path 
    d="M7.55778 0.838169C7.74538 0.482595 8.25462 0.482596 8.44222 0.838169L10.3305 4.41705C10.4028 4.55417 10.5347 4.64997 10.6874 4.67641L14.6747 5.36629C15.0708 5.43484 15.2282 5.91915 14.948 6.20745L12.1277 9.10921C12.0197 9.22039 11.9693 9.3754 11.9914 9.52886L12.5674 13.5341C12.6246 13.932 12.2126 14.2314 11.8519 14.054L8.22062 12.2685C8.0815 12.2001 7.9185 12.2001 7.77938 12.2685L4.14815 14.054C3.78737 14.2314 3.37539 13.932 3.43262 13.5341L4.00861 9.52886C4.03068 9.3754 3.98031 9.22039 3.87226 9.10921L1.05204 6.20745C0.771841 5.91915 0.929206 5.43484 1.32535 5.36629L5.31256 4.67641C5.46533 4.64997 5.59719 4.55417 5.66954 4.41705L7.55778 0.838169Z" 
    fill="#FFC531"
  />
</symbol>
</defs>
</svg>
